<svg xmlns="http://www.w3.org/2000/svg" xmlns:xlink="http://www.w3.org/1999/xlink" viewBox="0 0 478.69 229.58"><defs><style>.cls-1{isolation:isolate;}.cls-2,.cls-6{fill:#194f38;}.cls-3{fill:#0b442c;}.cls-4{fill:#003522;}.cls-5{fill:#114331;}.cls-6{opacity:0.17;}.cls-10,.cls-6{mix-blend-mode:multiply;}.cls-7{fill:#0f412f;}.cls-8{fill:#003422;}.cls-10,.cls-9{fill:#215825;}.cls-10{opacity:0.33;}.cls-11{fill:url(#linear-gradient);}</style><linearGradient id="linear-gradient" x1="233.16" y1="86.97" x2="218.68" y2="229.68" gradientUnits="userSpaceOnUse"><stop offset="0" stop-color="#18562e"/><stop offset="1" stop-color="#033215"/></linearGradient></defs><g class="cls-1"><g id="Layer_2" data-name="Layer 2"><g id="Layer_1-2" data-name="Layer 1"><path class="cls-2" d="M174.86,105.52c7.13,5.08,24.16,14.65,32.78,16.22l30.24,5.48c-11.3-24.81-32.25-66.39-57.34-77.12-4.66-2-9.68-3.4-13.67-6.52a19.25,19.25,0,0,1-4.5-5c-1.78,10.7-3.42,21.59-2,32.35S166,99.23,174.86,105.52Z"/><path class="cls-3" d="M237.88,140.55c-11.81-25-28.7-69-55.25-80.27-7.81-3.31-15.57-10.72-17.8-15.1-1.79,10.69-3.43,21.59-2,32.34a97.18,97.18,0,0,0,3.49,16.07c2.2,5,5,9.4,8.58,11.93C182,110.6,192,136,200.67,137.59,210.52,139.38,228,138.76,237.88,140.55Z"/><path class="cls-4" d="M200.13,66.42c2.53,7.33,6.52,14.06,10.48,20.72,7.2,12.13,18.79,32.59,26,44.71,17.11-22.45,10.28-65.81-9.79-85.67-9.71-9.62-23.47-16.93-26.66-30.21C196.46,32.6,194.56,50.32,200.13,66.42Z"/><path class="cls-5" d="M200.13,66.42c2.53,7.33,6.52,14.06,10.48,20.72,7.2,12.13,18.79,32.59,26,44.71,17.11-22.45,10.28-65.81-9.79-85.67-9.71-9.62-23.47-16.93-26.66-30.21C196.46,32.6,194.56,50.32,200.13,66.42Z"/><path class="cls-4" d="M236.61,131.85c8-10.5,10.77-25.58,9.39-40.7a65.81,65.81,0,0,0-18.72-36.68C217.57,44.86,203,41.93,200.94,22c-2.53,11.38-4.22,23.27-3.25,34.8a60.62,60.62,0,0,0,2.44,9.58c2.53,7.33,6.52,14.06,10.48,20.72C217.81,99.27,229.4,119.73,236.61,131.85Z"/><path class="cls-2" d="M238.5,64.38A62.54,62.54,0,0,1,269.9,22c14.39-7.7,32.24-10,43.3-22-10.68,9.5-13.9,24.76-15.06,39s-.94,29.08-6.95,42.05c-9.21,19.88-30.71,30.76-51.26,38.4q-.87-10.49-1.75-21C237.23,87.1,236.3,75.56,238.5,64.38Z"/><path class="cls-2" d="M238.5,64.38A62.54,62.54,0,0,1,269.9,22c14.39-7.7,32.24-10,43.3-22-10.68,9.5-13.9,24.76-15.06,39s-.94,29.08-6.95,42.05c-9.21,19.88-30.71,30.76-51.26,38.4q-.87-10.49-1.75-21C237.23,87.1,236.3,75.56,238.5,64.38Z"/><path class="cls-6" d="M291.19,81.05c6-13,5.8-27.8,6.95-42,.79-9.73,2.55-19.93,7-28.45C295.05,16,283,18.8,272.75,24.29c-16,8.58-10.21,29.59-13.73,47.41-2.2,11.19-18.94,17.71-18,29.07l1.47,17.7C262.26,110.88,282.37,100.11,291.19,81.05Z"/><path class="cls-4" d="M324.45,102.16c-12,6.94-26.21,8.93-40,10.79l-34.58,4.68a259.16,259.16,0,0,1,22.76-33.76c6.65-8.36,13.92-16.4,22.83-22.3,17.68-11.74,39.82-13.91,61-15.76L377.3,44C357.42,61.31,347.29,89,324.45,102.16Z"/><path class="cls-7" d="M324.45,102.16c-12,6.94-26.21,8.93-40,10.79l-34.58,4.68c6.68-11.82,14.54-25.81,23-36.45,6.65-8.36,13.92-16.4,22.82-22.31C313.4,47.14,334,41.65,355.13,44a114,114,0,0,0,22.17,0C357.42,61.31,347.29,89,324.45,102.16Z"/><path class="cls-8" d="M276.79,89.22a258.62,258.62,0,0,0-19,27.34L284.47,113c13.77-1.86,27.94-3.85,40-10.79C343.83,91,354.07,69.4,368.86,52.53c-5.44.47-11.21-.5-16.32,1.42-31.83,12-35.24,1.23-52.92,13C290.71,72.82,283.44,80.86,276.79,89.22Z"/><path class="cls-2" d="M408.8,97.21c-10.89-7-18.47-18.14-23.93-29.85s-2.71-18.28-7.57-30.25c20.22,13.41,38.64,15.77,52.87,35.41,8.42,11.64,12.62,26.72,24.1,35.38C438.53,107.06,422.06,105.71,408.8,97.21Z"/><path class="cls-4" d="M424.67,96.19c-3.49-6.32-5.82-14.89-11.33-19.76-6.6-5.83-13.32-11-21.54-14.29A37.09,37.09,0,0,1,381.38,56a42,42,0,0,0,3.49,11.38c5.46,11.71,13,22.87,23.93,29.85,6.76,4.33,14.36,6.8,22.27,8.3A58.44,58.44,0,0,1,424.67,96.19Z"/><path class="cls-4" d="M446.42,57.34c-5.58-15.19-15.88-28.6-19.37-44.4.27,13.8-4,27.37-3.95,41.17A68.55,68.55,0,0,0,452.92,110C452.77,92.21,452.55,74,446.42,57.34Z"/><path class="cls-2" d="M451,106.14a66.26,66.26,0,0,1-7.66-54.79c2.29-7.47,5.9-14.45,9.49-21.38l10.61-20.5C474.85,35.92,472,68.06,456,92.06,453.18,96.34,449.78,101.13,451,106.14Z"/><path class="cls-2" d="M15,152c7.14,5.08,24.17,14.65,32.79,16.21l30.24,5.49c-11.31-24.81-32.25-66.39-57.34-77.13-4.66-2-9.69-3.4-13.68-6.52a19.35,19.35,0,0,1-4.49-5C.77,95.73-.87,106.63.52,117.38S6.2,145.71,15,152Z"/><path class="cls-4" d="M40.31,112.9c2.53,7.33,6.52,14,10.48,20.72,7.21,12.12,18.8,32.59,26,44.71C93.91,155.88,87.08,112.52,67,92.65,57.3,83,43.54,75.72,40.35,62.44,36.65,79.08,34.75,96.79,40.31,112.9Z"/><path class="cls-2" d="M79.05,125.55A46.31,46.31,0,0,1,102.87,94.4c10.9-5.66,24.4-7.38,32.79-16.19-8.1,7-10.56,18.18-11.46,28.63s-.76,21.32-5.33,30.85c-7,14.6-23.27,22.61-38.83,28.25l-1.29-15.4C78.05,142.21,77.36,133.75,79.05,125.55Z"/><path class="cls-4" d="M164.63,148.64c-12,6.93-26.2,8.93-40,10.79l-34.59,4.68a259.81,259.81,0,0,1,22.76-33.76C119.48,122,126.76,114,135.66,108c17.69-11.73,39.83-13.91,61-15.75l20.84-1.82C197.61,107.79,187.48,135.48,164.63,148.64Z"/><path class="cls-9" d="M304.55,78.66c-35.93,14.9-65.31,42.08-84,76.15-12.64,23-23.33,48.58-16.56,60.14.81,1.38,2.5,2.6,4.91,3.7,2.24-.19,4.41-.88,7.55-1.38,3.77-.6,8.42-.27,11.29,2.69,1.38,1.43,2.88,2.58,2.73,3.55l.3,0a11.85,11.85,0,0,1,4-2.72c4.34-1.56,6.86-.17,10.77,1.5,1.81.78,9,.17,12.26.73A54.14,54.14,0,0,1,268,225.78c6.06.13,12.39.17,18.91.14A7.34,7.34,0,0,1,298,224.45c.47.43.92.88,1.36,1.33l4.27.31a7.32,7.32,0,0,1,9.09-.61l4.27-.14c2.56-2.05,6.17-2.57,8.93-.33l9.46-.41a14.49,14.49,0,0,1,2.09-.73,7,7,0,0,1,4.59.3l2.9.07a16,16,0,0,1,9.3-.67l2.85-.88c2.5-3.36,7.3-4.83,10.77-1.34a8.48,8.48,0,0,1,1,1.2,5.31,5.31,0,0,1,2.3-1.08c2.46-.69,5.24-1.55,7.83-.82,2.89.82,4.21-2.08,7.1-3,3.45-1.08,7,1.07,10.29-1.33,5-3.67,9.87-4.46,15.59-2.12a7.25,7.25,0,0,1,1.14.8c1.63-2.18,3-4.51,4.48-6.8,1.91-3,6.43-5.34,9.82-2.94a59.33,59.33,0,0,1,8.8,7.75,13.32,13.32,0,0,1,1.61-2.18,7.35,7.35,0,0,1,9.71-.8c.13-.08.24-.18.37-.25s.06-.23.08-.35a7.17,7.17,0,0,1,6.8-5.55,115.49,115.49,0,0,1,21.53,2.86c1.69-.94,2.53-1.87,2.36-2.79C478.67,204,455.24,16.18,304.55,78.66Z"/><path class="cls-10" d="M430.81,95.67a54.8,54.8,0,0,1-11.36,16.47c-29,29-66.42,40.29-106.9,42.27-14.53.71-29.05,2.31-43.61,1.72-14.24-.58-30.94-1.8-43-10.44-1.88,3-3.7,6-5.4,9.12-12.64,23-23.33,48.58-16.56,60.14.81,1.38,2.5,2.6,4.91,3.7,2.24-.19,4.41-.88,7.55-1.38,3.77-.6,8.42-.27,11.29,2.69,1.38,1.43,2.88,2.58,2.73,3.55l.3,0a11.85,11.85,0,0,1,4-2.72c4.34-1.56,6.86-.17,10.77,1.5,1.81.78,9,.17,12.26.73A54.14,54.14,0,0,1,268,225.78c6.06.13,12.39.17,18.91.14A7.34,7.34,0,0,1,298,224.45c.47.43.92.88,1.36,1.33l4.27.31a7.32,7.32,0,0,1,9.09-.61l4.27-.14c2.56-2.05,6.17-2.57,8.93-.33l9.46-.41a14.49,14.49,0,0,1,2.09-.73,7,7,0,0,1,4.59.3l2.9.07a16,16,0,0,1,9.3-.67l2.85-.88c2.5-3.36,7.3-4.83,10.77-1.34a8.48,8.48,0,0,1,1,1.2,5.31,5.31,0,0,1,2.3-1.08c2.46-.69,5.24-1.55,7.83-.82,2.89.82,4.21-2.08,7.1-3,3.45-1.08,7,1.07,10.29-1.33,5-3.67,9.87-4.46,15.59-2.12a7.25,7.25,0,0,1,1.14.8c1.63-2.18,3-4.51,4.48-6.8,1.91-3,6.43-5.34,9.82-2.94a59.33,59.33,0,0,1,8.8,7.75,13.32,13.32,0,0,1,1.61-2.18,7.35,7.35,0,0,1,9.71-.8c.13-.08.24-.18.37-.25s.06-.23.08-.35a7.17,7.17,0,0,1,6.8-5.55,115.49,115.49,0,0,1,21.53,2.86c1.69-.94,2.53-1.87,2.36-2.79C478.67,204,470.2,136.25,430.81,95.67Z"/><path class="cls-11" d="M275.82,201.45l51.56-22.13q-1.75-2.28-3.57-4.57l-53.74,7,37.44-26.55q-2.72-3.06-5.51-6.11l-41.84,10.41,24.47-28.1c-3.44-3.26-6.94-6.45-10.51-9.52l-33,17.27,19.31-28.24q-4.46-3.3-9-6.32l-30.16,25.77L228.61,92c-3.42-1.51-6.86-2.87-10.32-4l-19.55,40L195,83.28a75.54,75.54,0,0,0-18.24,1L175,133.91,162.86,88.27a82.75,82.75,0,0,0-14.74,7.62l13,42.65-21.86-36.15A119.22,119.22,0,0,0,126.93,114l21.31,32-28.07-24.15-.39.47s-4,6.8-9.3,16.9l31,21.17-35.11-13.28c-2.69,5.28-5.53,11.08-8.28,17.07l33.18,13.43-38.56-1.15c-2.12,5.14-4.06,10.26-5.68,15.15l40.72,9.08-43.29-.3a60.57,60.57,0,0,0-2.08,13.4,11.43,11.43,0,0,1,4.69-.78c2.87.24,5.67.33,8.3,1.63s.61,2,2.85-1.38a9.38,9.38,0,0,1,12.54-3c2.15,1.16,3.25,3.25,4.36,5.28s6.16-3.37,6.94-4.35c2.42-3,7.59-3,10.24-.35,3.64,3.61,4.45,5.33,8.39,1,2.53-2.75,7.56-3.23,10.24-.35,4.91,5.26,13.18,10,18.75,3.11,2.94-3.66,9.09-2.68,11.42,1.07.76,1.21,3.41,7.61,4.76,6.62a45.13,45.13,0,0,1,5.35-3.5,14.52,14.52,0,0,1,11.59-1.09c5.42,2,8,.43,13.62-.47,3.77-.6,8.42-.27,11.29,2.69,1.69,1.75,3.59,3.09,2.39,4.16,1.47-1.31,2.72-2.62,4.62-3.3,4.34-1.56,6.86-.17,10.77,1.5,1.81.78,9,.17,12.26.73a49.65,49.65,0,0,1,13.59,4.2,10.56,10.56,0,0,1,6.43-.4,30.78,30.78,0,0,1,5.55,2.11c2.83,1.38,1.7.45,3.29-2.65,2.18-4.22,7.9-4.92,11.33-1.86,1.23,1.1,2.34,2.33,3.47,3.54l1.81-1.63c3.18-2.86,6.88-2.9,10.25-.36.57.44,1.09.89,1.62,1.34,2.47-3.75,7.78-5.37,11.32-1.85,2.95,2.93,7.25-.68,11-1.62a7.45,7.45,0,0,1,5.9.92c5.12-1.94,9-2.24,12.82-.57a8.42,8.42,0,0,1,1.32-2c-2.69-4.25-6.14-9.55-10.24-15.57Z"/></g></g></g></svg>