<svg xmlns="http://www.w3.org/2000/svg" viewBox="0 0 1407 473.37"><defs><style>.cls-1{fill:#6fc6de;}.cls-2{fill:#4fb2c3;}</style></defs><g id="Layer_2" data-name="Layer 2"><g id="Layer_1-2" data-name="Layer 1"><path class="cls-1" d="M1407,119.57c-22.75-9.5-49.45-17.5-65.44-34.7-31.73,13.83-61.66,32.19-94.09,45.52-22.43,9.23-46.34,30.51-70.55,32.23-15.51,1.11-30.56-11.1-45.11-17.91-23.78-11.13-47.2-23.86-70.5-35.8-29.36-15-50.92-36.28-83.65-44.5-31.53-7.92-53.22-23.06-81.12-37.66C883.93,20.15,858.37.63,846.58,0c-8.86-.46-20.78,8.35-30.28,12.41C793,22.36,769.73,31.84,747,43c-27.75,13.57-54.54,30.22-81.06,45.65-43,25-80.47,59-123.59,84-24.29,14.08-51.05,25.21-77,37-19,8.68-36.05,21.73-55.88,28-22,6.92-41.48,15.26-62,4.26-25.73-13.77-49.67-31.12-75.62-43.78-25.05-12.23-48.56-28.77-75.71-34.12-14.7-2.9-25-6.21-37.94-14.06-9.71-5.92-29.74-13.14-36.52-21.83-23.8,12.48-46.95,30.08-67.43,48-17.08,14.93-36,27.92-54.25,41.57V438.92c38.91,3.19,78.06,6.67,116.61,12.23,75.08,10.84,151.44,22.43,227.44,22.22,100.41-.27,201.24-9.39,301.34-16.84,115-8.56,230.11-14.62,345.34-19,133.63-5.12,265.09-10.34,395.68-42.89,6.12-1.53,13.07-3.07,20.59-4.69Z"/><path class="cls-2" d="M1328.79,206.74c1.27-9.31,6.48-21.43,4.86-30.8-1.56-9-13.18-13.7-14.07-18.77-1.78-10.12,14.15-13.28,12.23-23.33s-16.64-5.73-25.84-6.27c-1.65-13.86,22.12-28.18,30.47-37.7,1.23-1.41,2.69-3,4.29-4.63-31.42,13.79-61.12,31.94-93.26,45.15-22.14,9.11-45.72,29.94-69.6,32.14-19.48,11.78-57.13,25.53-60.2,44.44-2.75,16.95,24.73,18.57,23.31,38.17-2.51,34.78-63.14,31.77-86,28.78-39.8-5.21-75.15-25.93-115.91-18.06-34.75,6.72-69.81,19.66-102.93,32.08-13.68,5.13-38.69,17.27-52.65,12.08,5.47-9.63,11.75-14.77,2.52-20.8s-43.09,2.87-54.32,1.88c-16.86-1.49-46.52-1.67-43.52-20.73,2.2-14,20.88-15.9,10.6-34.49-3.41-6.17-13.64-7.11-14.17-13.73-.49-6,21.58-17.8,26.93-21.38,16.15-10.78,33.61-20.17,47.35-34.07,10-10.17,22.11-22.31,25.72-36.17,3.24-12.46-4.74-22.72-2.22-33.91,4.39-19.55,33.82-41.54,45.24-58.58,6.56-9.8,14.69-18.53,22.43-27.42a16.62,16.62,0,0,0-3.48-.6c-8.86-.46-20.78,8.35-30.28,12.41C793,22.36,769.73,31.84,747,43c-27.75,13.56-54.54,30.21-81.06,45.64-43,25-80.47,59-123.59,84-24.29,14.08-51.05,25.21-77,37-19,8.68-36.05,21.73-55.88,28-16.23,5.11-31.1,11-46,9.28-20.83,6-50.57,10.39-62.88,25-8.49,10.07-9,26.68-16.27,38.37-10.9,17.65-31.71,25.15-51.43,31.11-60.53,18.29-119.08-.2-155.47-50C66.83,276.86,60,269.25,65.8,251.76c4.6-13.76,21.53-23.46,25-36.56,3.32-12.72-6.87-15.58.73-28.44,5.3-8.95,31.27-21,13.26-31.31,5.24-9.77,11.42-17.87,18.22-25.95a18.83,18.83,0,0,1-1.28-1.46c-23.8,12.48-46.95,30.08-67.43,48-17.08,14.93-36,27.92-54.25,41.57V438.92c38.91,3.19,78.06,6.67,116.61,12.23,75.08,10.84,151.44,22.43,227.44,22.22,100.41-.27,201.24-9.39,301.34-16.84,115-8.56,230.11-14.62,345.34-19,111.79-4.28,222.06-8.65,331.57-29A214.66,214.66,0,0,0,1337,378.24c16.51-42.57,11.83-79.36-2-122.07C1329.28,238.67,1326.27,225.17,1328.79,206.74Z"/></g></g></svg>